# xmcd
#
# Track frame offsets:
#	150
#	22889
#	48335
#	79945
#	97862
#	122128
#	152630
#	178796
#	204593
#	227251
#	265808
#
# Disc length: 3885 seconds
#
# Revision: 0
# Processed by: cddbd v1.4PL0 Copyright (c) Steve Scherf et al.
# Submitted via: EasyCDDAExtractor 4.5.0.2
#
DISCID=7f0f2b0b
DTITLE=Diversen - Raï Mania IV
DYEAR=1900
DGENRE=Other
TTITLE0=Nacer - Gadrette Bya
TTITLE1=Abdou - Mama Louken
TTITLE2=Ghazi - Ana El Maryoul
TTITLE3=Nacer - Boumboum
TTITLE4=Hakim Sahli - Mabrouk Ya Aaroussa
TTITLE5=Abdou - Alach Tahadrou Fi Chira
TTITLE6=Othman - Anti Khalata
TTITLE7=Moury - Fatel Cortege
TTITLE8=Kadiro - Moulet El Khana
TTITLE9=Hocine - Aynik Ya Aynik
TTITLE10=Djalta Mouna - Sobri Sobri
EXTD=
EXTT0=
EXTT1=
EXTT2=
EXTT3=
EXTT4=
EXTT5=
EXTT6=
EXTT7=
EXTT8=
EXTT9=
EXTT10=
PLAYORDER=
